<?xml version="1.0" encoding="UTF-8" standalone="no"?>
<!-- Created with Inkscape (http://www.inkscape.org/) -->

<svg
   version="1.1"
   id="svg1"
   width="114.38467mm"
   height="119.02052mm"
   viewBox="0 0 432.31999 449.84135"
   sodipodi:docname="Martur logo.svg"
   inkscape:version="1.4.2 (ebf0e940, 2025-05-08)"
   xmlns:inkscape="http://www.inkscape.org/namespaces/inkscape"
   xmlns:sodipodi="http://sodipodi.sourceforge.net/DTD/sodipodi-0.dtd"
   xmlns:xlink="http://www.w3.org/1999/xlink"
   xmlns="http://www.w3.org/2000/svg"
   xmlns:svg="http://www.w3.org/2000/svg">
  <defs
     id="defs1">
    <color-profile
       name="Generic-CMYK-Profile"
       xlink:href="file:///System/Library/ColorSync/Profiles/Generic%20CMYK%20Profile.icc"
       id="color-profile2" />
  </defs>
  <sodipodi:namedview
     id="namedview1"
     pagecolor="#ffffff"
     bordercolor="#666666"
     borderopacity="1.0"
     inkscape:showpageshadow="2"
     inkscape:pageopacity="0.0"
     inkscape:pagecheckerboard="0"
     inkscape:deskcolor="#d1d1d1"
     inkscape:zoom="0.75067352"
     inkscape:cx="107.9031"
     inkscape:cy="153.19576"
     inkscape:window-width="1440"
     inkscape:window-height="847"
     inkscape:window-x="0"
     inkscape:window-y="25"
     inkscape:window-maximized="0"
     inkscape:current-layer="g1"
     inkscape:document-units="mm">
    <inkscape:page
       x="0"
       y="0"
       width="432.31998"
       height="449.84137"
       id="page2"
       margin="0"
       bleed="0" />
  </sodipodi:namedview>
  <g
     inkscape:groupmode="layer"
     inkscape:label="Image"
     id="g1"
     transform="translate(-29.852877,-30.439661)">
    <path
       style="fill:#000000"
       d="M 231.61288,479.78414 C 144.28935,474.02506 68.525627,418.48989 36.335687,336.64502 c -1.71107,-4.35048 -6.48281,-18.12596 -6.48281,-18.71512 0,-0.0907 3.20868,-0.16488 7.1304,-0.16488 h 7.1304 l 1.22565,3.76 c 62.155633,190.67849 335.800823,192.09958 400.524453,2.08 l 1.9892,-5.84 h 7.1433 7.1433 l -0.2779,0.88 c -32.43162,102.70091 -125.7779,168.0291 -230.2488,161.13912 z m 7.84,-29.15969 c -9.21628,-2.40898 -11.00119,-6.90456 -10.67045,-26.87531 l 0.21357,-12.89588 1.29167,0.0959 1.29167,0.0959 0.0168,14.24 0.0168,14.24 1.0878,2.32092 c 4.87112,10.39303 20.13895,8.70225 22.7341,-2.51761 0.17852,-0.77182 0.42307,-7.41531 0.54343,-14.76331 l 0.21885,-13.36 h 1.31491 1.31491 l -0.11253,12.88 c -0.12386,14.17604 -0.30291,15.90681 -2.00382,19.36948 -2.96542,6.03691 -10.15874,9.02549 -17.25765,7.16995 z m 41.50769,-3.61379 c -3.49064,-0.69387 -6.18308,-2.34355 -5.86878,-3.59585 0.27624,-1.10062 0.77463,-1.07237 3.35534,0.19021 7.45538,3.64747 16.20575,-0.71536 16.20575,-8.08 0,-5.61939 -2.44065,-7.46597 -11.01478,-8.33369 -9.89116,-1.001 -13.74829,-4.66438 -12.44498,-11.81985 1.33112,-7.30817 12.06712,-11.41577 18.73976,-7.16985 2.1418,1.36286 0.35316,2.64461 -2.24178,1.60647 -8.37986,-3.35247 -16.91674,3.26371 -13.42192,10.40215 1.33517,2.7272 3.24235,3.5563 10.27462,4.46663 8.80807,1.14022 11.06519,2.53854 12.37965,7.6694 2.22731,8.69402 -6.35146,16.57494 -15.96288,14.66438 z m -88.06769,-2.9999 c -10.1626,-2.24098 -15.53089,-9.10853 -15.1293,-19.35461 0.62637,-15.98068 14.31314,-25.09266 27.90594,-18.57841 19.53074,9.35996 8.33844,42.58916 -12.77664,37.93302 z m 9.86409,-3.28565 c 10.59011,-4.98941 13.75598,-22.76733 5.37936,-30.20769 -11.00609,-9.77592 -26.44182,-1.93537 -27.78738,14.11454 -1.01154,12.06556 11.65232,21.16058 22.40802,16.09315 z m 113.6627,-4.00629 c -1.70828,-4.05633 -5.65444,-13.17578 -5.86159,-13.54592 -0.18801,-0.33597 -0.74024,0.13885 -2.13918,1.83934 l -1.88574,2.29223 -0.47091,-0.99435 c -0.46119,-0.9738 -0.44177,-1.03155 0.93986,-2.79473 0.77592,-0.99021 1.63959,-2.11313 1.91925,-2.49537 0.4831,-0.66033 0.30574,-1.16906 -3.55564,-10.19847 l -4.0641,-9.50347 1.15563,-0.46812 c 1.49038,-0.60372 1.06303,-1.28964 5.15563,8.27506 1.95801,4.576 3.67303,8.43482 3.81116,8.57515 0.13813,0.14034 2.09758,-1.99069 4.35433,-4.7356 l 4.10319,-4.99076 0.42412,1.00866 c 0.51287,1.21979 0.82661,0.6963 -3.94464,6.5818 l -3.92308,4.83924 3.01707,7.00076 c 1.94064,4.50304 3.16349,6.96315 3.42746,6.89534 0.22572,-0.058 3.93839,-1.62014 8.25039,-3.47148 4.312,-1.85134 8.02041,-3.43947 8.24091,-3.52917 0.23512,-0.0957 0.58619,0.27756 0.84897,0.90253 l 0.44806,1.06563 -7.72897,3.31336 c -4.25093,1.82234 -8.70948,3.73158 -9.90789,4.24274 l -2.17892,0.92939 z M 158.60342,431.3871 c -1.19953,-0.73142 -0.99222,0.16538 -2.85312,-12.34208 -0.81469,-5.47568 -1.67804,-10.23779 -1.92705,-10.62932 -0.4374,-0.68774 -5.08503,-3.60339 -5.73037,-3.59491 -0.176,0.002 -2.25071,3.41971 -4.61047,7.59422 -2.35976,4.17451 -4.33219,7.64244 -4.38317,7.70651 -0.16268,0.20446 -2.40011,-1.29722 -2.30126,-1.54451 0.46994,-1.17564 19.36329,-33.91342 19.57645,-33.92142 1.17209,-0.044 12.63651,7.28825 14.22574,9.09828 7.17022,8.16644 -1.6827,19.57884 -12.37763,15.95612 -1.78547,-0.60479 -1.80196,-1.8059 0.14572,10.61503 2.10344,13.41424 2.07732,12.18536 0.23516,11.06208 z m 6.01476,-23.43346 c 5.91215,-1.77132 7.67336,-9.3322 3.18831,-13.68738 -1.99795,-1.9401 -9.83438,-6.67269 -10.28532,-6.21153 -0.14537,0.14866 -2.13591,3.54388 -4.42342,7.54494 l -4.1591,7.27464 3.70841,2.09884 c 5.68473,3.21736 8.68626,3.96466 11.97112,2.98049 z m 185.90818,7.86498 c -4.84805,-1.30372 -6.46639,-2.92996 -15.71515,-15.79184 l -7.46282,-10.37825 1.05966,-0.88463 1.05965,-0.88464 0.53355,0.70288 c 0.29345,0.38659 3.65671,5.03769 7.47391,10.33579 3.81719,5.2981 7.62376,10.30921 8.45904,11.1358 9.55806,9.45864 25.11994,-1.43606 19.38931,-13.57424 -0.89473,-1.89516 -2.57716,-4.32595 -12.59501,-18.19734 l -3.32417,-4.60287 0.94428,-0.75544 c 1.2841,-1.02729 0.64744,-1.71405 8.64759,9.32803 9.61564,13.27184 10.75907,15.71531 9.99995,21.36965 -1.09614,8.16468 -10.46286,14.35028 -18.46979,12.1971 z M 120.76871,404.4715 c -20.47577,-5.36978 -23.415603,-30.22164 -4.67583,-39.52718 11.07091,-5.49745 27.92534,3.88513 27.99325,15.58338 0.0143,2.47006 -1.97547,1.87204 -2.54071,-0.76359 -2.45121,-11.4296 -16.08586,-17.63482 -25.58641,-11.64455 -15.04148,9.48392 -12.29637,29.46902 4.66142,33.93638 l 1.64754,0.43403 3.71338,-3.9386 3.71337,-3.93861 -2.88092,-2.64195 c -3.06049,-2.80662 -3.2197,-3.08001 -2.28586,-3.92511 0.56737,-0.51347 0.77418,-0.37065 4.44528,3.06975 l 3.85023,3.60828 -0.60426,0.80065 c -0.33235,0.44035 -2.51273,2.7731 -4.84529,5.18388 l -4.24102,4.38324 z m 107.80417,-17.91918 c -41.39626,-5.80197 -77.90458,-30.69397 -97.72018,-66.6273 l -1.19114,-2.16 h 4.6043 4.60429 l 0.38588,0.8469 c 3.99828,8.77529 19.15688,25.99825 30.98728,35.20727 57.92068,45.0866 143.15594,29.43384 181.30236,-33.29471 1.90797,-3.13749 2.49684,-2.92332 -5.90358,-2.14718 -10.69377,0.98803 -21.4702,1.40019 -30.50921,1.16688 -11.26064,-0.29067 -25.33674,-1.02909 -25.05163,-1.31419 0.0533,-0.0533 4.70376,-0.34785 10.33429,-0.6545 5.63054,-0.30665 10.28586,-0.59397 10.34516,-0.63849 0.0593,-0.0445 -0.96573,-1.10073 -2.27786,-2.34712 -6.21085,-5.8997 -9.50996,-14.53656 -9.50996,-24.89646 v -2.6484 h -4.41676 -4.41676 l 0.13388,4.72 c 0.33285,11.73549 -3.08119,21.99504 -9.69719,29.14111 l -1.76031,1.90134 5.35857,0.20295 c 2.94722,0.11162 7.44657,0.30141 9.99857,0.42175 l 4.64,0.21881 -5.6,0.55758 c -23.78059,2.36779 -35.65471,2.60137 -59.92662,1.17886 -8.25416,-0.48376 -7.90929,-0.70579 1.84662,-1.18888 4.224,-0.20916 8.36179,-0.46452 9.19508,-0.56748 l 1.51507,-0.18718 -2.38548,-2.53579 c -1.31202,-1.39468 -2.85643,-3.2993 -3.43203,-4.23248 l -1.04654,-1.69669 -6.56305,-0.1883 c -3.60968,-0.10356 -7.93105,-0.34335 -9.60305,-0.53286 -1.672,-0.18952 -5.776,-0.43569 -9.12,-0.54706 -6.79667,-0.22636 -6.71477,-0.49511 0.32,-1.05003 2.79748,-0.22068 5.05086,-0.2454 6,-0.0658 l 1.52,0.28756 v -1.72896 c 0,-3.23134 -0.71553,-4.20035 -3.52,-4.76697 l -1.76,-0.3556 -0.051,-2.37292 c -0.0281,-1.3051 -0.0641,-2.8405 -0.08,-3.412 -0.0311,-1.1131 -1.80624,-3.41091 -2.90434,-3.75944 -0.99103,-0.31454 -1.02237,-1.1413 -0.13545,-3.57309 1.58519,-4.3463 -0.32816,-5.62273 -7.04776,-4.70171 -2.14049,0.29339 -3.51588,4.87692 -3.69648,12.31863 -0.003,0.11292 -0.40098,0.29788 -0.88498,0.41102 -1.94785,0.45533 -2.59944,0.89597 -3.07225,2.07764 -0.59632,1.49037 -1.16775,5.49819 -1.16775,8.1903 0,2.39271 -0.0139,2.40519 -2.98612,2.67076 -2.58555,0.23103 -2.95739,0.70214 -0.89722,1.13674 l 1.38309,0.29177 -0.90988,0.40224 -0.90987,0.40224 0.96,0.0485 c 1.84099,0.093 2.38153,0.5965 0.66667,0.62101 -3.13372,0.0448 -1.16663,0.28543 5.73333,0.70135 7.74519,0.46687 7.63206,0.56337 -1.44,1.22844 -14.62735,1.07232 -28.008,1.01863 -44.8,-0.17976 -9.7346,-0.69472 -10.78592,-0.90523 -6.13593,-1.2286 3.88825,-0.2704 4.49321,-0.58856 3.40515,-1.79086 -0.46378,-0.51247 -0.98927,-0.62808 -2.85481,-0.62808 -2.95522,0 -3.0543,-0.11883 -3.05491,-3.664 -6.4e-4,-3.74737 -0.50505,-4.83504 -2.75283,-5.936 -3.03615,-1.48709 -2.87597,-0.96442 -2.17748,-7.10522 0.28216,-2.48063 0.062,-3.12701 -1.73998,-5.10842 -2.50188,-2.751 -2.52442,-2.84795 -1.27987,-5.50261 1.56621,-3.34077 1.53012,-5.87531 -0.12934,-9.08413 -1.48756,-2.87644 -1.4991,-3.6069 -0.0842,-5.33357 2.17029,-2.64856 2.51467,-4.93214 1.42754,-9.46605 -0.79787,-3.32753 -0.70369,-3.75459 1.1099,-5.03292 2.32465,-1.63857 2.83803,-3.01816 2.70114,-7.25864 l -0.11436,-3.54237 1.75479,-0.56509 c 2.6294,-0.84675 3.14328,-1.52389 3.53653,-4.66008 0.40872,-3.25964 0.40792,-3.2609 -2.07475,-3.2609 -4.15818,0 -4.2622,-1.18778 -0.51225,-5.84924 6.42942,-7.99223 16.1734,-13.71837 26.95529,-15.84053 l 2.98039,-0.58662 -0.0939,-12.30181 c -0.1253,-16.42329 -0.0328,-15.66296 -2.01965,-16.60624 -1.41917,-0.67378 -3.49439,-2.54938 -3.4816,-3.14669 0.0288,-1.34322 7.00827,-5.27304 12.81313,-7.21444 8.16591,-2.73104 11.40791,-2.7189 30.99397,0.11602 38.01417,5.50223 49.63338,7.27565 50.07601,7.643 0.94504,0.78431 -0.0794,1.61226 -2.61513,2.11353 l -1.04713,0.207 0.21129,11.09301 c 0.11621,6.10116 0.25038,11.13998 0.29816,11.19738 0.15166,0.18221 11.27803,-0.34483 11.58921,-0.54896 0.74311,-0.48749 -0.27502,-29.23276 -1.07253,-30.2812 -3.31076,-4.3525 0.13921,-10.03421 5.33586,-8.78756 3.82801,0.91833 5.28629,5.22249 2.89013,8.53029 l -0.90731,1.25251 0.25625,12.62527 c 0.14094,6.94391 0.26458,13.48928 0.27476,14.54528 l 0.0185,1.92 8.87777,0.0781 c 20.26577,0.17838 38.57845,3.95516 43.34517,8.93945 2.26313,2.36642 2.27967,3.05538 0.57691,24.02438 -0.70397,8.66909 -1.27994,16.1732 -1.27994,16.67581 0,0.89328 0.0486,0.91876 2.16,1.13243 24.57519,2.48692 33.28182,39.72366 12.85804,54.99159 l -2.24491,1.6782 4.73344,0.24089 c 2.60339,0.13249 6.99451,0.34849 9.75805,0.48 l 5.02462,0.23911 -1.92468,3.36 c -20.17997,35.22895 -54.11199,58.34618 -95.64456,65.16082 -5.31878,0.87271 -30.17097,0.94589 -36.16,0.10648 z m 51.1037,-70.32101 c 0.26064,-1.94327 -0.0894,-3.01041 -0.947,-2.88706 -0.90118,0.12961 -1.50601,1.34484 -1.51198,3.03792 -0.0102,2.88721 2.06859,2.75968 2.45898,-0.15086 z m -7.62265,-3.64034 c 2.31209,-1.30329 6.87294,-4.42413 8.51895,-5.82923 l 1.28,-1.09266 0.64893,2.28797 c 0.522,1.84042 0.78265,2.30727 1.33252,2.38663 2.00373,0.28917 1.37217,-7.68184 -0.85665,-10.81192 -0.93258,-1.30969 -0.95926,-1.29218 -2.31816,1.52195 -1.66147,3.44072 -3.5122,5.29108 -7.44664,7.44513 -2.26843,1.24194 -3.25771,2.07272 -3.8704,3.25029 -1.09585,2.10619 -0.0871,2.41937 2.71145,0.84184 z m -95.35051,-1.43901 c 6.78364,-1.35559 12.82946,-5.31157 12.82946,-8.39472 0,-0.61521 -0.0457,-0.62039 -1.2,-0.13616 -0.66,0.27688 -4.152,1.5057 -7.76,2.73072 -13.19661,4.48064 -15.64702,8.15371 -3.86946,5.80016 z m 80.36369,-0.4342 c 11.21646,-5.72221 8.46285,-33.27274 -3.32554,-33.27274 -11.31949,0 -14.47973,25.04297 -4.12151,32.66049 2.29904,1.69074 4.91197,1.90556 7.44705,0.61225 z m -5.76571,-6.79274 c -4.32576,-4.57233 -4.57848,-14.67885 -0.4901,-19.6 l 0.79755,-0.96 -0.80902,1.81287 c -2.42435,5.43254 -2.26643,11.85736 0.4254,17.30713 0.67373,1.364 1.18787,2.48 1.14253,2.48 -0.0453,0 -0.5252,-0.468 -1.06636,-1.04 z m 3.4631,-3.92646 c -1.74255,-0.94656 -2.79432,-4.45034 -2.19807,-7.32246 0.73417,-3.53647 3.74659,-5.22328 5.84877,-3.27504 4.42494,4.10089 1.26676,13.26866 -3.6507,10.5975 z m 70.30917,5.80549 c 5.55926,-2.58867 9.13664,-11.17787 7.70171,-18.49166 -1.08952,-5.5533 -3.89776,-10.01807 -5.61678,-8.93003 -0.37277,0.23594 -0.21489,0.76623 0.87977,2.9551 5.07949,10.15687 0.53945,19.97983 -8.25888,17.86915 -2.00043,-0.4799 -2.07206,-0.4222 -1.31627,1.06024 0.33037,0.64799 0.505,1.17817 0.38808,1.17817 -0.60818,0 -2.79474,-2.24653 -3.91866,-4.02614 -1.3699,-2.16909 -4.81347,-5.57273 -5.01783,-4.95965 -2.31598,6.94794 8.48212,16.45384 15.15886,13.34482 z m -128.42922,-6.91903 c 0.0581,-4.98552 -0.93798,-8 -2.64354,-8 -1.78422,0 -1.65766,2.77881 0.40517,8.89623 1.94326,5.76281 2.16173,5.67533 2.23837,-0.89623 z m 145.94118,5.0797 c 0.74099,-0.37416 2.89525,-1.73965 4.78725,-3.03442 l 3.44,-2.35413 v 2.74109 c 0,3.33304 0.45627,3.46084 1.5282,0.42805 1.95174,-5.52204 0.0761,-13.93357 -2.07665,-9.31296 -1.24335,2.66871 -3.17753,4.86915 -6.69262,7.61393 -4.7955,3.7446 -5.40021,6.14732 -0.98618,3.91844 z m -180.36669,-2.50979 c 3.55125,-2.03679 6.7179,-8.15154 7.646,-14.76429 l 0.20693,-1.47439 -1.38335,-0.2212 c -7.17356,-1.1471 -7.37461,-18.41889 -0.21452,-18.42883 1.841,-0.003 0.39374,-4.67596 -2.99808,-9.6812 -1.51738,-2.23916 -1.40086,-2.23558 -3.6848,-0.11322 -7.496,6.9657 -10.13723,25.38183 -4.91941,34.30085 0.31778,0.5432 0.82772,1.4072 1.13319,1.92 0.43775,0.73486 0.3089,0.66122 -0.60827,-0.34763 -8.06148,-8.86736 -5.88728,-32.12065 3.54856,-37.95233 1.42634,-0.88152 1.34959,-1.13418 -0.46254,-1.52281 -12.05396,-2.58511 -19.01555,26.81231 -10.12191,42.74281 3.16579,5.67065 7.83192,7.85148 11.8582,5.54224 z m 72.67816,-8.16991 0.006,-5.6 h -1.70231 c -2.90237,0 -3.724,3.19094 -1.7921,6.96 0.77095,1.5041 0.56447,1.70145 -0.72169,0.68975 -1.00363,-0.78945 -1.94157,-2.53333 -2.90962,-5.40975 -0.98509,-2.92706 -4.93992,-3.49344 -4.55892,-0.6529 0.65474,4.8815 5.40127,9.57281 9.71337,9.60038 l 1.95906,0.0125 z m 38.74514,4.50619 c 1.46707,-0.75865 3.67198,-2.76159 6.2816,-5.70619 3.15236,-3.55702 3.2457,-3.52161 6.7481,2.56 1.13293,1.96725 2.02026,0.81803 1.58898,-2.05797 -0.36671,-2.44536 -5.95079,-12.77752 -7.10164,-13.14007 -0.22682,-0.0714 -0.51522,0.56444 -0.73403,1.61848 -0.44341,2.13589 -2.10628,5.65452 -3.58202,7.57956 -2.90554,3.79016 -6.03035,8.67517 -6.03035,9.42725 0,0.35373 1.98269,0.15677 2.82936,-0.28106 z m -93.36744,-1.34217 c 5.21214,-1.54731 11.71537,-6.41864 13.67923,-10.2466 l 0.58841,-1.14693 1.50701,1.71476 c 0.82886,0.94311 2.40171,2.992 3.49522,4.55309 3.37433,4.81714 3.17251,4.77124 2.99705,0.68166 -0.23184,-5.40349 -1.63394,-9.14975 -5.19986,-13.89347 -1.92545,-2.56142 -2.45962,-2.5042 -2.72717,0.29213 -0.26486,2.76826 -2.27935,4.68864 -9.40962,8.96999 -6.76552,4.06235 -9.43219,6.62164 -9.43219,9.05238 0,0.71718 2.12695,0.72804 4.50192,0.023 z m 164.02907,-6.0039 c 0.38005,-0.19807 1.36908,-1.29612 2.19785,-2.44012 3.81259,-5.26275 4.42543,-5.52401 6.02234,-2.56744 1.95529,3.62008 2.59417,2.52016 1.03353,-1.77936 -1.86881,-5.14852 -6.26471,-9.10131 -6.26471,-5.63324 0,0.93771 -0.40476,1.74449 -1.9572,3.90112 -4.65677,6.46911 -5.16601,10.67362 -1.03181,8.51904 z m -71.82517,-7.16012 c 1.18839,-1.26676 2.89707,-4.07568 3.94182,-6.48 0.49711,-1.144 1.01123,-2.20528 1.1425,-2.3584 0.35337,-0.41221 3.90153,2.43727 7.08067,5.6864 3.22515,3.29616 3.66442,3.20696 2.47185,-0.50192 -1.44113,-4.48194 -4.4403,-7.77173 -9.13606,-10.02136 -3.98624,-1.90971 -3.85996,-1.94733 -4.0251,1.19892 -0.12898,2.45743 -0.29737,3.0247 -1.93072,6.5043 -2.80657,5.97891 -2.56204,9.18811 0.45504,5.97206 z m 53.88757,-1.96515 c -1.39698,-1.45813 -3.84483,-2.64936 -5.20757,-2.53423 -2.50113,0.2113 -1.30149,1.21184 3.02156,2.52008 1.28006,0.38737 2.41048,0.83876 2.51205,1.00309 0.10156,0.16434 0.26774,0.21571 0.36929,0.11416 0.10154,-0.10154 -0.21136,-0.59794 -0.69533,-1.1031 z m -145.57655,-1.63533 c 4.39851,-2.01191 9.37045,-6.30376 12.18449,-10.51783 l 1.30529,-1.95467 5.51587,6.40064 c 3.03373,3.52036 5.56744,6.34908 5.63047,6.28605 1.43068,-1.43068 -5.31884,-15.21571 -9.59674,-19.60009 -2.41743,-2.4776 -2.40426,-2.4763 -3.80385,-0.37362 -0.61504,0.924 -3.0809,3.96083 -5.47969,6.74852 -5.58766,6.49352 -7.97604,10.09808 -9.01341,13.60307 -0.26749,0.90376 0.15538,0.82691 3.25757,-0.59207 z m 38.39421,-7.25123 c -0.11608,-3.98845 -0.21105,-8.74045 -0.21105,-10.56 v -3.30829 h -3.71759 -3.7176 l 0.19203,2.32 c 0.10562,1.276 0.28455,5.92 0.39763,10.32 0.24498,9.53245 -0.236,8.48 3.87546,8.48 h 3.39216 z m 7.64725,6.11372 c 5.08094,-0.5337 5.2617,-0.5777 5.2617,-1.28089 0,-0.32562 -0.38101,-0.46112 -1.29665,-0.46112 h -1.29665 l 0.21789,-9.36 c 0.16815,-7.22319 0.31806,-9.47533 0.65665,-9.8652 2.73065,-3.14411 -2.3613,-5.51745 -9.64124,-4.49374 l -1.6,0.22499 2.88,1.45954 c 1.584,0.80275 3.56886,1.7183 4.4108,2.03457 2.18418,0.82048 1.76871,1.36998 -1.44138,1.90637 -1.58914,0.26553 -3.06768,1.54917 -3.26288,2.83276 -0.41033,2.69817 -0.4439,17.50071 -0.0397,17.50071 0.22573,0 2.54389,-0.2241 5.15146,-0.49799 z m 113.85306,0.0209 c 0.26239,-0.26239 0.65479,-1.01839 0.87199,-1.68 1.86774,-5.68932 3.41144,-6.16863 7.98223,-2.47843 2.77507,2.24044 3.06187,2.1456 1.76689,-0.58431 -1.49853,-3.15902 -4.29315,-5.38169 -8.54824,-6.79876 -3.3817,-1.12621 -3.33176,-1.16689 -3.62354,2.95198 -0.55454,7.82826 -0.11619,10.25638 1.55067,8.58952 z m -17.1763,-1.39684 c 4.64383,-0.29402 5.74504,-1.42562 6.08577,-6.25372 0.18334,-2.59803 0.17104,-2.65903 -0.57674,-2.85915 -2.15814,-0.57755 -35.94263,-0.2089 -37.29914,0.407 -3.90736,1.77406 -3.28839,6.89068 1.02458,8.46959 1.36443,0.49949 23.87742,0.6724 30.76553,0.23628 z m -53.99282,-4.49128 c 0.34939,-0.68486 0.90369,-2.59286 1.23177,-4.24 0.70768,-3.55288 0.54641,-3.50296 5.00251,-1.54867 5.75882,2.52563 6.04948,0.44237 0.3179,-2.27851 -7.81451,-3.70967 -11.2571,-3.01019 -10.85464,2.20546 0.46899,6.07767 2.66556,9.07031 4.30246,5.86172 z m -27.64059,-4.19479 c 0.86098,-1.32 2.48734,-3.45975 3.61414,-4.755 2.17052,-2.49502 2.16101,-2.40672 0.36421,-3.38316 -2.43176,-1.3215 -5.33528,-1.25336 -6.08245,0.14275 -0.50936,0.95174 -0.19997,11.25516 0.3198,10.65018 0.12038,-0.14012 0.92332,-1.33477 1.7843,-2.65477 z m 93.52303,1.50666 c 0.18867,-0.22734 0.38631,-1.41534 0.43918,-2.64 l 0.0961,-2.22666 1.6357,0.0658 c 0.89963,0.0362 2.98131,0.49849 4.62596,1.02737 3.85686,1.2403 4.20899,0.98689 1.35612,-0.97594 -4.13105,-2.84224 -10.97778,-3.53465 -10.97778,-1.11018 0,3.28914 1.8217,7.06817 2.82468,5.85965 z m -26.09633,-4.05363 c 2.07259,-0.1605 4.45601,-0.18312 5.29649,-0.0503 l 1.52814,0.24157 -0.009,-1.30217 c -0.005,-0.71619 0.0237,-2.61939 0.0635,-4.22933 l 0.0724,-2.92716 2.8,-0.12525 c 3.2602,-0.14583 3.26852,-0.13945 3.2751,2.5134 0.007,2.88291 -0.0703,2.98617 -2.23925,2.98617 h -1.85569 l -0.49065,1.44 c -0.56788,1.66664 -0.51992,1.72132 0.5614,0.64 0.442,-0.442 1.17135,-0.8 1.62983,-0.8 0.4741,0 1.14765,0.34294 1.57124,0.8 1.03103,1.11251 6.90802,1.25381 6.90802,0.1661 0,-0.43115 -0.28147,-0.69598 -0.88,-0.82799 -2.61357,-0.57644 -2.4677,-0.35912 -2.36355,-3.52105 0.10796,-3.27785 0.0988,-3.26058 1.80089,-3.39567 1.70117,-0.13503 2.07773,-1.21868 0.42613,-1.22629 -1.84687,-0.009 -1.93425,-0.19694 -1.68239,-3.62805 l 0.22661,-3.08705 h 1.20998 c 2.57936,0 3.02895,-0.83095 0.62233,-1.1502 l -1.6,-0.21225 v -3.28735 -3.28736 l 1.93559,-0.22465 c 2.37856,-0.27606 2.4024,-0.91679 0.0393,-1.05491 l -1.65485,-0.0967 0.003,-1.66328 c 0.002,-0.9148 0.0936,-2.41928 0.20458,-3.34328 l 0.20179,-1.68 h 1.53654 c 2.49033,0 2.3297,-1.13111 -0.18975,-1.33615 l -1.27608,-0.10383 -0.0915,-2.91771 -0.0914,-2.91771 1.01144,-0.20229 c 0.5563,-0.11126 1.48066,-0.20229 2.05413,-0.20229 1.13478,0 1.42453,-0.49682 1.43295,-2.45701 0.0118,-2.74416 -18.01567,-5.91081 -25.38066,-4.45829 -5.16017,1.01769 -5.37048,1.41169 -4.80147,8.9953 0.83902,11.18213 2.66034,34.26548 2.85942,36.24 0.23289,2.30992 -0.32887,2.13167 5.33543,1.69303 z m -2.13125,-3.05303 c -0.10535,-0.88 -0.19279,-2.408 -0.19432,-3.39555 l -0.003,-1.79556 1.84,-0.16382 c 1.012,-0.0901 2.308,-0.0938 2.88,-0.008 l 1.04,0.1557 v 2.9645 c 0,3.53847 -0.0423,3.5897 -3.08568,3.73428 l -2.28569,0.10858 z m 0.4429,-6.82709 c -1.15423,-0.15452 -1.18163,-0.22497 -1.42087,-3.65291 l -0.21774,-3.12 h 3.32597 c 4.00829,0 3.6254,-0.38059 3.43264,3.41195 l -0.16,3.14805 -2.08,0.16 c -1.144,0.088 -2.44,0.11181 -2.88,0.0529 z m 8.75758,-0.72081 c 0.11133,-0.55665 0.20242,-2.0741 0.20242,-3.3721 v -2.36 h 3.0512 3.05119 l -0.0912,3.28 -0.0912,3.28 -3.16242,0.0921 -3.16242,0.0921 z m 0.76242,-7.22676 c -0.62472,-0.16986 -0.71505,-1.40804 -0.35441,-4.8584 l 0.20558,-1.96694 h 3.00524 3.00524 l -0.0908,3.44 -0.0908,3.44 -2.56,0.0488 c -1.408,0.0268 -2.812,-0.0197 -3.12,-0.10347 z m -11.23264,-1.78534 c -0.68713,-5.72064 -0.1189,-6.26968 5.66798,-5.4765 l 1.48466,0.20349 v 3.47651 3.4765 h -3.47542 -3.47543 z m 11.17746,-6.59984 c -0.0951,-0.15391 -0.0819,-1.66591 0.0294,-3.36 l 0.20233,-3.08016 h 2.99174 2.99173 v 3.36 3.36 h -3.02111 c -1.66162,0 -3.09894,-0.12593 -3.19407,-0.27984 z m -10.35545,-0.27498 -1.37064,-0.12302 0.0906,-3.42108 0.0906,-3.42108 3.76954,0.0255 c 4.53325,0.0307 4.32765,-0.1625 4.14428,3.89446 l -0.14825,3.28 -2.60279,-0.0559 c -1.43153,-0.0307 -3.21956,-0.11127 -3.97341,-0.17892 z m 10.55817,-10.56518 0.0925,-2.8 3.01132,-0.0927 c 3.68585,-0.11345 3.67677,-0.12176 3.39118,3.10449 l -0.22911,2.5882 h -3.17915 -3.17915 z m -8.70754,2.15204 c -1.848,-0.12849 -3.468,-0.25126 -3.6,-0.27283 -0.132,-0.0216 -0.24,-1.24315 -0.24,-2.71464 v -2.67542 l 1.68,-0.20179 c 2.98807,-0.35891 7.28559,-0.24769 7.44385,0.19264 0.0791,0.22 0.0386,1.624 -0.09,3.12 -0.27197,3.164 0.20897,2.92768 -5.19381,2.55204 z m -52.48775,33.77189 c 2.56069,-1.2976 6.76671,-2.35317 10.75748,-2.69976 4.48886,-0.38985 4.61765,-0.46205 1.82466,-1.02292 -5.69033,-1.14269 -11.95696,0.0325 -14.45487,2.71079 -1.54398,1.65546 -0.50507,2.21681 1.87273,1.01189 z m 34.24775,-0.94129 c 0,-0.77954 -0.35902,-5.78354 -0.79783,-11.12 -1.96581,-23.90682 -2.35816,-24.43218 -17.64718,-23.62951 -20.705,1.08701 -42.50512,3.07468 -43.05493,3.92562 -1.07681,1.66657 -0.023,1.74174 10.51452,0.74995 48.7129,-4.58486 45.31674,-6.3501 48.27345,25.0913 0.61752,6.56666 2.71197,10.41474 2.71197,4.98264 z M 180.2396,263.57499 c 3.87469,-1.90885 7.64784,-5.25809 10.25328,-9.10136 1.45567,-2.14725 1.94058,-1.87009 10.60911,6.06401 3.56642,3.26426 3.49282,3.22774 3.11482,1.5454 -1.32963,-5.91776 -5.69406,-11.68026 -12.0649,-15.92968 -3.59569,-2.39837 -3.60296,-2.39899 -4.32335,-0.37067 -0.45925,1.29305 -1.29362,2.33654 -4.15789,5.2 -3.93522,3.93411 -5.30974,6.07321 -6.12506,9.53211 -1.04391,4.42867 -0.75349,4.75857 2.69399,3.06019 z m 66.03741,-6.58609 c 0.39505,-0.39505 -2.10731,-3.03858 -3.50343,-3.70108 -2.31319,-1.09768 -13.53843,-0.37923 -11.43505,0.73188 4.02703,2.12727 13.83162,4.07605 14.93848,2.9692 z m 27.01353,-4.90388 c -0.38359,-9.80813 -1.3641,-10.16711 -21.61855,-7.91488 -3.11251,0.3461 -5.91111,0.63054 -6.21911,0.63208 -0.43953,0.002 -0.56,0.27816 -0.56,1.2828 v 1.28 h 8.103 c 11.29529,0 14.617,1.58184 14.617,6.96079 0,0.52196 0.28044,0.6886 1.45538,0.86479 0.80046,0.12004 1.91646,0.41875 2.48,0.66381 1.945,0.84579 1.92452,0.89011 1.74228,-3.76939 z m -55.28604,3.61196 c 0.88693,-0.5609 -0.81818,-1.93618 -2.3674,-1.90947 -3.02398,0.0522 -2.905,0.76491 0.29578,1.77197 1.59219,0.50095 1.50594,0.49523 2.07162,0.1375 z m 37.22607,-0.0337 c 1.60089,-0.44455 1.84891,-1.15319 0.73805,-2.10871 -0.82452,-0.70923 -10.41471,-1.26189 -9.71253,-0.55971 0.52762,0.52763 6.26438,3.0072 6.95679,3.0069 0.44,-1.8e-4 1.34796,-0.1525 2.01769,-0.33848 z m -43.86041,-3.30485 c 5.09134,-1.11174 5.09935,-1.12961 2.95557,-6.59344 -9.87367,-25.16502 -24.68385,-32.50439 -50.00547,-24.78083 -3.38404,1.0322 -3.25206,1.20979 0.42356,0.56995 19.51503,-3.39714 32.4447,5.47352 39.53573,27.12426 1.5955,4.87148 1.60701,4.87746 7.09061,3.68006 z m -35.88941,-1.80766 c 2.76802,-1.41213 8.68097,-6.75551 10.37789,-9.37823 0.70015,-1.08212 1.49396,-1.04588 4.60362,0.21017 2.52489,1.01985 2.46848,0.83786 -0.68938,-2.22365 -3.69115,-3.57855 -7.28,-5.85705 -7.28,-4.62196 0,0.19882 -1.69223,2.05043 -3.76052,4.11469 -6.50179,6.48913 -8.74612,14.70207 -3.25161,11.89898 z m -6.08365,-9.46191 c 0.42668,-0.45987 2.75578,-2.63222 5.17578,-4.82745 4.95261,-4.4926 4.85547,-4.33105 3.13275,-5.20991 -4.03499,-2.0585 -11.21275,2.19836 -11.21275,6.64985 0,3.39588 1.39104,5.01841 2.90422,3.38751 z m -17.06422,-2.03522 c 1.34239,-0.60933 1.36,-0.63854 1.36,-2.25476 v -1.63744 l -0.88,0.65514 c -4.29636,3.19855 -4.57789,5.09716 -0.48,3.23706 z m 11.22603,-6.2436 c 3.74728,-3.0255 3.74686,-3.07042 -0.0196,-2.10713 -5.51242,1.40984 -7.64486,2.81906 -5.60646,3.70503 2.02166,0.8787 2.84999,0.64344 5.62603,-1.5979 z m 91.5921,-7.49458 c 11.14807,-1.09465 18.84756,-1.7319 27.98147,-2.3159 9.64269,-0.61652 6.35686,-1.02938 -8.3196,-1.04533 -13.76434,-0.015 -23.99982,0.52311 -39.4327,2.07292 -3.38398,0.33983 -6.29998,0.61787 -6.48,0.61787 -0.31643,0 -0.48086,3.25977 -0.17963,3.56101 0.0812,0.0812 3.79738,-0.31363 8.25813,-0.87745 4.46075,-0.56381 12.63829,-1.46972 18.17233,-2.01312 z m -35.03371,-3.83109 -0.22542,-4.44065 0.86366,-0.67935 c 0.47501,-0.37364 1.18274,-0.67935 1.57274,-0.67935 3.35595,0 3.98106,-2.8641 0.71368,-3.26985 -6.01506,-0.74698 -6.31215,-3.29413 -0.59747,-5.12251 l 2.27428,-0.72764 0.007,-5.84 c 0.004,-3.212 -0.0748,-5.84 -0.17489,-5.84 -0.10008,0 -6.14466,-0.792 -13.43242,-1.76 -7.28776,-0.968 -13.55783,-1.76 -13.93349,-1.76 h -0.68303 l 0.19979,10 c 0.10988,5.5 0.28443,11.728 0.38788,13.84 l 0.1881,3.84 3.40756,2.31188 c 4.35032,2.9515 5.3013,3.27137 10.76755,3.62176 2.464,0.15794 4.984,0.42075 5.6,0.58401 0.616,0.16326 1.60821,0.31158 2.20491,0.3296 l 1.08492,0.0328 z m 79.78145,-1.10412 c 2.02761,-3.28074 13.56042,-5.0983 21.23413,-3.34648 4.16946,0.95184 1.7555,-0.16639 -3.15134,-1.4598 -20.24713,-5.33705 -59.3798,-4.92068 -89.08866,0.94788 -4.86759,0.96153 -8,2.35085 -8,3.54827 0,0.58607 -0.34585,0.63468 8.16,-1.14686 25.73212,-5.38955 63.81759,-4.33093 69.48492,1.9314 0.67515,0.74602 0.58788,0.77644 1.36095,-0.47441 z M 192.8508,206.96502 c -0.0747,-5.5 -0.21686,-11.32794 -0.31601,-12.95097 l -0.18028,-2.95098 -1.01082,-0.17724 c -1.55596,-0.27282 -12.47921,-1.76033 -12.92852,-1.76058 -0.39546,-2.3e-4 -0.29986,22.4311 0.11007,25.82523 l 0.16249,1.34545 4.70258,0.0309 c 2.58641,0.017 5.35057,0.14953 6.14257,0.29449 0.792,0.14496 1.89307,0.28159 2.44683,0.30362 l 1.00683,0.0401 z m 36.36208,6.60577 c 0,-0.0692 -0.2965,-0.12577 -0.65888,-0.12577 -0.36239,0 -0.57378,0.13771 -0.46976,0.30603 0.17076,0.27629 1.12864,0.1233 1.12864,-0.18026 z m 16.96,-1.89833 c 4.488,-0.45135 8.65037,-0.89589 9.2497,-0.98786 l 1.0897,-0.16723 -0.18721,-10.72702 c -0.10297,-5.89986 -0.2567,-10.79651 -0.34162,-10.88143 -0.13428,-0.13428 -23.60935,4.83726 -26.85057,5.68639 l -1.2,0.31438 v 5.45497 5.45497 l 2.48,-0.26731 c 12.76962,-1.37635 16.66465,1.31871 8.26227,5.71686 -2.79767,1.46442 -2.96446,1.45545 7.49773,0.40328 z m -9.13486,-1.78649 c 4.23969,-2.08368 4.40633,-2.36882 1.54734,-2.64773 -2.09142,-0.20402 -9.82016,0.29015 -10.42971,0.66688 -1.15845,0.71596 0.0647,3.26339 1.73304,3.60945 2.25093,0.46691 3.43385,0.19744 7.14933,-1.6286 z m -11.98514,-0.33545 c 0,-0.94845 -0.0334,-0.97046 -1.15416,-0.7602 -3.05947,0.57396 -3.4737,1.2712 -1.00584,1.69308 2.04329,0.3493 2.16,0.29889 2.16,-0.93288 z M 382.20866,383.4992 c -20.65901,-5.55587 -22.00122,-33.42605 -1.9104,-39.66829 3.60242,-1.11928 4.2333,1.08055 0.66062,2.30354 -16.35887,5.5999 -16.98639,25.76741 -1.0448,33.5782 10.26429,5.02913 23.3661,-2.58898 24.81299,-14.42763 l 0.19555,-1.6 -4.01221,-3.30053 c -2.20672,-1.81529 -4.13943,-3.2219 -4.29493,-3.12579 -0.1555,0.0961 -1.33245,1.47334 -2.61545,3.06053 -2.55906,3.1658 -2.50023,3.12653 -3.48483,2.32579 l -0.68859,-0.56 3.37412,-4.08 c 4.03963,-4.88473 2.72307,-4.92658 9.03503,0.28715 l 5.28707,4.36715 -0.21307,1.63285 c -1.6377,12.5508 -14.1762,22.1451 -25.1011,19.20703 z M 86.081867,372.51565 c -0.79479,-1.34547 -0.86653,-1.18768 3.02434,-6.65127 1.96533,-2.75974 3.57333,-5.18908 3.57333,-5.39853 0,-0.36746 -9.41522,-15.25031 -10.15901,-16.05859 -0.29007,-0.31521 -1.55951,-0.16629 -6.11684,0.7176 -6.5543,1.27119 -10.23352,0.85567 -8.42572,-0.95156 0.3954,-0.39528 41.748843,-7.7657 42.071023,-7.49831 1.75583,1.45721 2.17349,0.7156 -10.963793,19.46789 -6.66178,9.50908 -12.18928,17.29215 -12.28333,17.29569 -0.094,0.004 -0.41805,-0.41177 -0.72,-0.92292 z M 101.33022,348.5981 c 5.66083,-7.97479 6.70174,-9.60545 6.00522,-9.40765 -0.46341,0.1316 -5.66656,1.1434 -11.562563,2.24844 -5.896,1.10504 -10.81858,2.09849 -10.93906,2.20765 -0.26654,0.24151 9.058,14.79955 9.40381,14.68182 0.13464,-0.0458 3.32631,-4.42445 7.092593,-9.73026 z m 300.93089,-8.79566 -17.19177,-9.61518 0.62838,-1.23173 0.62839,-1.23173 13.20338,7.36835 c 7.26187,4.05259 15.03077,8.38649 17.26424,9.6309 l 4.06085,2.26255 -0.62735,1.22971 c -0.75654,1.48293 2.21702,2.87534 -17.96612,-8.41287 z M 30.370247,190.96502 C 49.235317,125.33109 102.70628,68.158334 167.53346,44.306 c 2.15568,-0.793157 4.22932,-1.571837 4.60808,-1.730401 8.47015,-3.545898 31.73398,-8.937952 46.29774,-10.730813 33.19551,-4.086512 78.76838,1.023838 103.92302,11.653492 0.42382,0.179094 2.7086,1.063729 5.07729,1.965855 58.00723,22.092297 105.61039,69.706577 128.43089,128.460887 1.451,3.73574 6.3024,18.0208 6.3024,18.5575 0,0.0894 -3.2213,0.1625 -7.1585,0.1625 h -7.1585 l -1.6712,-4.88 C 380.94919,-2.7230802 110.6997,-2.8329569 45.809297,187.60224 l -1.71642,5.03722 -7.10276,0.003 -7.10275,0.003 z m 100.418273,1.14809 c 0.69045,-1.79928 6.13081,-10.18356 9.72541,-14.98809 52.3476,-69.96756 156.98188,-70.60494 210.13032,-1.28 4.15181,5.41548 10.72863,15.55262 10.72863,16.53652 0,0.14491 -2.052,0.26237 -4.56,0.26102 l -4.56,-0.002 -0.7662,-1.35753 c -5.464,-9.68095 -17.64602,-23.48938 -27.97608,-31.71116 -58.66886,-46.69552 -143.65315,-31.97303 -183.06414,31.71315 l -0.84161,1.36 h -4.51022 c -4.07325,0 -4.49045,-0.0515 -4.30611,-0.53191 z m 233.38257,-31.92504 c -2.93163,-1.04616 -6.22583,-4.50321 -6.98791,-7.33335 -0.54307,-2.01681 0.0905,-3.6762 3.67746,-9.6317 5.47457,-9.08953 5.59881,-10.07422 1.71661,-13.60484 -2.26724,-2.06191 -1.53898,-2.45988 -7.38429,4.03524 -7.68815,8.54284 -7.73193,8.62519 -5.87679,11.05556 2.53856,3.3257 0.55257,2.20986 -4.86181,-2.73162 -2.92681,-2.67118 -6.22131,-5.63316 -7.3211,-6.58218 -2.47602,-2.13657 -2.36615,-3.21391 0.16411,-1.60926 2.72314,1.72696 2.33629,2.04602 16.41806,-13.54085 14.44792,-15.99216 14.181,-15.57923 11.81355,-18.2756 -2.61608,-2.979551 -0.13264,-1.95951 3.39325,1.39373 1.88055,1.78848 5.63135,5.19777 8.33511,7.57622 9.89057,8.70056 12.75876,14.27427 10.21101,19.84294 -2.97746,6.50792 -10.96719,8.15794 -18.25434,3.76985 -2.32969,-1.40287 -2.37441,-1.39115 -0.96521,0.25281 3.8132,4.44845 4.27777,8.29815 1.59827,13.24405 -5.44419,10.04904 -5.68921,11.60246 -1.83419,11.62884 0.70795,0.005 1.04,0.16037 1.04,0.48711 0,0.62453 -3.15453,0.63942 -4.88179,0.0231 z m 8.69402,-29.50914 c 6.42172,-3.20008 10.19216,-10.97967 7.37945,-15.22609 -3.27509,-4.94448 -4.54125,-4.49262 -12.69398,4.53018 l -6.21074,6.87354 1.69652,1.52496 c 3.59211,3.22885 6.56508,3.92376 9.82875,2.29741 z m -248.25248,29.21398 c -0.30778,-0.37085 -0.2225,-0.70171 0.42793,-1.66018 1.9488,-2.87171 1.69011,-3.30414 -11.47844,-19.18771 -12.9335,-15.60006 -12.71558,-15.41223 -15.603783,-13.44965 -2.8852,1.96055 -2.02198,0.0454 1.11781,-2.47997 1.647523,-1.32513 4.331373,-3.5685 5.964113,-4.98528 l 2.96862,-2.57595 1.802,0.91392 c 0.9911,0.50266 7.69303,4.02507 14.89318,7.82758 7.20015,3.80252 13.12434,6.87669 13.16488,6.83151 0.0405,-0.0452 -2.2865,-6.97869 -5.17118,-15.40779 -2.88468,-8.4291 -5.24488,-15.49361 -5.24488,-15.69892 0,-0.305785 7.23586,-6.679606 10.14668,-8.937861 1.4258,-1.106156 1.64607,-0.09706 0.30326,1.389276 -2.24606,2.486116 -2.81199,1.563008 11.48475,18.733135 13.61008,16.34547 13.07886,15.87564 15.77739,13.95412 0.94167,-0.67052 2.17056,-0.72679 1.91453,-0.0876 -0.0586,0.14638 -1.69061,1.54032 -3.62661,3.09765 -1.936,1.55733 -5.37196,4.40816 -7.63547,6.33518 -4.21069,3.58474 -6.04753,4.3148 -3.56812,1.41817 1.41562,-1.65383 1.59803,-2.52215 0.83989,-3.998 -0.51895,-1.01023 -20.5861,-25.51017 -22.47482,-27.43947 -0.42359,-0.43268 1.15029,4.5948 4.85862,15.52 3.01685,8.888 6.13515,18.08014 6.92956,20.42698 2.00845,5.93329 3.60758,6.38775 -18.94265,-5.38332 -10.85454,-5.666 -19.77429,-10.25273 -19.82167,-10.19274 -0.18645,0.2361 21.88912,26.47229 22.9642,27.29229 1.68887,1.28816 3.24801,1.39205 5.29841,0.35303 2.48492,-1.2592 3.18327,-0.58597 1.0592,1.02111 -2.00049,1.51358 -5.03705,4.06743 -6.65508,5.59716 -1.10752,1.04707 -1.36683,1.16557 -1.69232,0.77338 z m 42.94972,-34.62417 c -0.1072,-0.27938 0.1003,-0.80576 0.47477,-1.20437 1.86033,-1.98022 1.80772,-1.27566 1.90605,-25.524727 l 0.0903,-22.265381 1.6759,-0.694619 c 0.92174,-0.382041 1.84684,-0.694619 2.05578,-0.694619 0.20894,0 7.07612,7.257897 15.26041,16.128661 15.87628,17.207945 15.92454,17.255135 18.08341,17.682075 2.30065,0.45497 1.87785,0.89004 -2.44478,2.51574 -2.25021,0.84629 -6.2845,2.42984 -8.96508,3.519 -2.68057,1.08916 -4.94857,1.9055 -5.04,1.81408 -0.37402,-0.37403 -0.12617,-0.98914 0.47551,-1.18011 2.19554,-0.69684 3.11207,-2.69242 1.99616,-4.3463 -1.14962,-1.70384 -8.57114,-9.89315 -8.96562,-9.89315 -0.22595,0 -3.21464,1.1017 -6.64154,2.44822 l -6.23074,2.44822 v 3.89301 c 0,8.69088 1.63248,11.62064 5.97299,10.71955 1.44584,-0.30015 1.8407,-0.29046 2.05135,0.0504 0.32714,0.52932 0.84815,0.26514 -4.34434,2.20282 -2.464,0.91949 -5.01426,1.94316 -5.66725,2.2748 -1.43631,0.72949 -1.50273,0.73356 -1.74328,0.10672 z m 10.54832,-23.16772 5.41031,-2.140411 -6.01985,-6.777793 c -6.97183,-7.849638 -6.68808,-7.67944 -6.41617,-3.848632 0.11436,1.611037 0.20792,5.724741 0.20792,9.141564 v 6.212402 l 0.70375,-0.22336 c 0.38706,-0.12285 3.13838,-1.18654 6.11404,-2.36377 z m 139.74221,23.16818 c -6.60961,-1.84037 -12.37483,-6.78382 -13.6313,-11.68831 -1.13155,-4.41684 -0.32792,-6.91015 7.28889,-22.614231 6.76006,-13.937662 7.33075,-16.721635 3.42781,-16.721635 -0.18278,0 -0.28379,-0.252 -0.22448,-0.56 0.15809,-0.820872 0.20583,-0.803339 6.81908,2.503962 3.344,1.672342 7.268,3.577644 8.72,4.234005 1.452,0.656361 2.64,1.326331 2.64,1.488822 0,0.575417 -0.54061,0.612257 -2.1333,0.145373 -3.29021,-0.964496 -3.23611,-1.037765 -10.95437,14.835945 -9.92936,20.421119 -10.06147,23.527609 -1.13404,26.665349 7.73705,2.71935 11.54476,-0.81153 20.28207,-18.80747 6.51374,-13.416141 6.76718,-15.230838 2.45886,-17.60588 -3.73782,-2.060542 0.71084,-0.910799 5.46283,1.411853 6.07194,2.967811 6.71859,3.654799 3.17222,3.370131 -3.05948,-0.245586 -3.35849,0.158733 -9.80077,13.252686 -9.43556,19.1778 -13.28022,22.62688 -22.3935,20.0894 z m -37.6,-14.71956 c -1.936,-0.41285 -6.544,-1.26586 -10.24,-1.89557 -8.75592,-1.4918 -8.48,-1.42822 -8.48,-1.95401 0,-0.36001 0.51725,-0.43792 2.49623,-0.37599 4.68868,0.14674 4.29084,1.17102 8.35831,-21.519046 3.98553,-22.233016 3.76964,-19.600623 1.63343,-19.916444 -5.12116,-0.757124 -8.7523,1.964135 -12.19522,9.139363 -1.3622,2.838897 -2.93743,4.113025 -2.3904,1.933475 0.41536,-1.654918 1.78182,-10.129315 1.98389,-12.303517 0.24327,-2.617506 -0.15363,-2.51204 5.26976,-1.400289 5.04659,1.034511 25.57006,4.726858 30.21604,5.436124 l 3.53204,0.539209 -1.05098,4.686039 c -0.57804,2.577322 -1.23832,5.98204 -1.46729,7.56604 -0.55682,3.851988 -1.81755,4.581024 -1.83697,1.062256 -0.025,-4.527193 -1.5168,-9.535297 -3.44693,-11.571563 -1.90622,-2.011045 -6.65346,-3.613153 -6.93987,-2.342082 -0.82464,3.659716 -6.56204,36.746175 -6.56204,37.842025 0,2.61795 1.46671,3.99586 4.95633,4.65628 0.83149,0.15737 1.07358,1.24545 0.26714,1.20071 -0.32091,-0.0178 -2.16747,-0.37016 -4.10347,-0.78301 z m -69.92,-1.43507 c 0,-0.38938 0.42894,-0.66158 1.44616,-0.91772 3.31084,-0.83368 3.28635,-0.33141 1.09822,-22.525004 -2.01647,-20.452462 -1.76575,-19.505403 -5.2977,-20.010626 -0.83239,-0.119069 -1.56963,-0.385037 -1.63829,-0.591039 -0.13621,-0.408617 0.16614,-0.451295 8.55161,-1.207077 2.904,-0.261738 7.512,-0.716395 10.24,-1.01035 20.88056,-2.249978 28.46022,16.010058 9.18275,22.122029 l -2.21056,0.700864 2.28463,0.225122 c 7.03624,0.693333 8.70396,2.259849 11.53591,10.835866 2.27266,6.882305 3.57052,8.216985 6.00136,6.171575 1.89109,-1.59125 2.05273,-0.36028 0.18242,1.3893 -3.49321,3.26771 -10.0785,3.87931 -13.11006,1.21757 -1.52796,-1.34157 -2.13774,-2.68032 -3.62909,-7.967601 -1.85159,-6.564456 -2.52078,-8.179133 -4.06536,-9.80925 l -1.348,-1.422652 -3.13039,0.229785 c -1.72172,0.126382 -3.17823,0.277618 -3.23669,0.33608 -0.14372,0.143715 1.15375,13.236118 1.57011,15.843578 0.4775,2.99035 1.31651,3.84 3.79193,3.84 1.08771,0 1.30104,0.10494 1.30104,0.64 0,0.55235 -0.21333,0.64 -1.55762,0.64 -1.69532,0 -13.56731,1.13847 -16.28238,1.56141 -1.48008,0.23056 -1.68,0.19583 -1.68,-0.29186 z m 18.47994,-24.441299 c 9.61514,-3.392417 5.53869,-22.553069 -4.3973,-20.668748 -3.41571,0.647776 -3.46823,0.926624 -2.3432,12.441257 l 0.88723,9.080757 2.25854,-0.190917 c 1.2422,-0.105005 2.85983,-0.403062 3.59473,-0.662349 z"
       id="path1" />
  </g>
</svg>
